<svg width="51" height="51" viewBox="0 0 51 51" fill="none" xmlns="http://www.w3.org/2000/svg">
<path d="M15.3 15.3H10.2V20.4H15.3V15.3Z" fill="white"/>
<path d="M20.4 5.09998H15.3V10.2H20.4V5.09998Z" fill="black"/>
<path d="M15.3 5.09998H10.2V10.2H15.3V5.09998Z" fill="black"/>
<path d="M25.5 10.2H20.4V15.3H25.5V10.2Z" fill="black"/>
<path d="M30.6 10.2H25.5V15.3H30.6V10.2Z" fill="black"/>
<path d="M35.7 5.09998H30.6V10.2H35.7V5.09998Z" fill="black"/>
<path d="M40.8 5.09998H35.7V10.2H40.8V5.09998Z" fill="black"/>
<path d="M45.9 5.09998H40.8V10.2H45.9V5.09998Z" fill="black"/>
<path d="M51 10.2H45.9V15.3H51V10.2Z" fill="black"/>
<path d="M51 15.3H45.9V20.4H51V15.3Z" fill="black"/>
<path d="M10.2 5.09998H5.10001V10.2H10.2V5.09998Z" fill="black"/>
<path d="M5.1 10.2H0V15.3H5.1V10.2Z" fill="black"/>
<path d="M5.1 15.3H0V20.4H5.1V15.3Z" fill="black"/>
<path d="M5.1 20.4H0V25.5H5.1V20.4Z" fill="black"/>
<path d="M51 20.4H45.9V25.5H51V20.4Z" fill="black"/>
<path d="M10.2 25.5H5.10001V30.6H10.2V25.5Z" fill="black"/>
<path d="M15.3 30.6H10.2V35.7H15.3V30.6Z" fill="black"/>
<path d="M20.4 35.7H15.3V40.7999H20.4V35.7Z" fill="black"/>
<path d="M25.5 40.8H20.4V45.9H25.5V40.8Z" fill="black"/>
<path d="M30.6 40.8H25.5V45.9H30.6V40.8Z" fill="black"/>
<path d="M35.7 35.7H30.6V40.7999H35.7V35.7Z" fill="black"/>
<path d="M40.8 30.6H35.7V35.7H40.8V30.6Z" fill="black"/>
<path d="M45.9 25.5H40.8V30.6H45.9V25.5Z" fill="black"/>
<path d="M10.2 10.2H5.10001V15.3H10.2V10.2Z" fill="#2D1B1B"/>
<path d="M15.3 10.2H10.2V15.3H15.3V10.2Z" fill="#322C2C"/>
<path d="M20.4 10.2H15.3V15.3H20.4V10.2Z" fill="#322C2C"/>
<path d="M10.2 15.3H5.10001V20.4H10.2V15.3Z" fill="#2D1B1B"/>
<path d="M15.3 15.3H10.2V20.4H15.3V15.3Z" fill="#322C2C"/>
<path d="M20.4 15.3H15.3V20.4H20.4V15.3Z" fill="#322C2C"/>
<path d="M10.2 20.4H5.10001V25.5H10.2V20.4Z" fill="#2D1B1B"/>
<path d="M15.3 20.4H10.2V25.5H15.3V20.4Z" fill="#322C2C"/>
<path d="M20.4 20.4H15.3V25.5H20.4V20.4Z" fill="#322C2C"/>
<path d="M15.3 25.5H10.2V30.6H15.3V25.5Z" fill="#2D1B1B"/>
<path d="M20.4 25.5H15.3V30.6H20.4V25.5Z" fill="#322C2C"/>
<path d="M20.4 30.6H15.3V35.7H20.4V30.6Z" fill="#2D1B1B"/>
<path d="M25.5 30.6H20.4V35.7H25.5V30.6Z" fill="#322C2C"/>
<path d="M25.5 35.7H20.4V40.7999H25.5V35.7Z" fill="#2D1B1B"/>
<path d="M30.6 35.7H25.5V40.7999H30.6V35.7Z" fill="#322C2C"/>
<path d="M30.6 30.6H25.5V35.7H30.6V30.6Z" fill="#322C2C"/>
<path d="M25.5 25.5H20.4V30.6H25.5V25.5Z" fill="#322C2C"/>
<path d="M30.6 25.5H25.5V30.6H30.6V25.5Z" fill="#322C2C"/>
<path d="M30.6 20.4H25.5V25.5H30.6V20.4Z" fill="#322C2C"/>
<path d="M25.5 20.4H20.4V25.5H25.5V20.4Z" fill="#322C2C"/>
<path d="M25.5 15.3H20.4V20.4H25.5V15.3Z" fill="#322C2C"/>
<path d="M30.6 15.3H25.5V20.4H30.6V15.3Z" fill="#322C2C"/>
<path d="M35.7 20.4H30.6V25.5H35.7V20.4Z" fill="#322C2C"/>
<path d="M40.8 25.5H35.7V30.6H40.8V25.5Z" fill="#322C2C"/>
<path d="M35.7 25.5H30.6V30.6H35.7V25.5Z" fill="#322C2C"/>
<path d="M35.7 30.6H30.6V35.7H35.7V30.6Z" fill="#322C2C"/>
<path d="M40.8 20.4H35.7V25.5H40.8V20.4Z" fill="#322C2C"/>
<path d="M45.9 20.4H40.8V25.5H45.9V20.4Z" fill="#3A3A3A"/>
<path d="M35.7 15.3H30.6V20.4H35.7V15.3Z" fill="#322C2C"/>
<path d="M40.8 15.3H35.7V20.4H40.8V15.3Z" fill="#322C2C"/>
<path d="M45.9 15.3H40.8V20.4H45.9V15.3Z" fill="#3A3A3A"/>
<path d="M45.9 10.2H40.8V15.3H45.9V10.2Z" fill="#3A3A3A"/>
<path d="M40.8 10.2H35.7V15.3H40.8V10.2Z" fill="#3A3A3A"/>
<path d="M35.7 10.2H30.6V15.3H35.7V10.2Z" fill="#3A3A3A"/>
</svg>
